<svg preserveAspectRatio="none" width="100%" height="100%" overflow="visible" style="display: block;" viewBox="0 0 9 9" fill="none" xmlns="http://www.w3.org/2000/svg">
<path id="Vector" d="M4.2295 4.932L0.8475 8.31417C0.755166 8.40639 0.639111 8.45361 0.499333 8.45584C0.359667 8.45795 0.2415 8.41072 0.144833 8.31417C0.0482778 8.2175 0 8.10039 0 7.96283C0 7.82528 0.0482778 7.70817 0.144833 7.6115L3.527 4.2295L0.144833 0.847501C0.0526111 0.755167 0.00538893 0.639112 0.00316671 0.499334C0.0010556 0.359667 0.0482778 0.2415 0.144833 0.144833C0.2415 0.0482778 0.358611 0 0.496167 0C0.633722 0 0.750833 0.0482778 0.8475 0.144833L4.2295 3.527L7.6115 0.144833C7.70383 0.0526112 7.81989 0.00538893 7.95967 0.00316671C8.09933 0.0010556 8.2175 0.0482778 8.31417 0.144833C8.41072 0.2415 8.459 0.358611 8.459 0.496167C8.459 0.633723 8.41072 0.750834 8.31417 0.847501L4.932 4.2295L8.31417 7.6115C8.40639 7.70383 8.45361 7.81989 8.45583 7.95967C8.45794 8.09933 8.41072 8.2175 8.31417 8.31417C8.2175 8.41072 8.10039 8.459 7.96283 8.459C7.82528 8.459 7.70817 8.41072 7.6115 8.31417L4.2295 4.932Z" fill="var(--fill-0, #424242)"/>
</svg>
