<svg preserveAspectRatio="none" width="100%" height="100%" overflow="visible" style="display: block;" viewBox="0 0 9 9" fill="none" xmlns="http://www.w3.org/2000/svg">
<path id="Vector" d="M3.83333 4.83333H0.5C0.358333 4.83333 0.239611 4.78539 0.143833 4.6895C0.0479445 4.59361 0 4.47483 0 4.33317C0 4.19139 0.0479445 4.07267 0.143833 3.977C0.239611 3.88122 0.358333 3.83333 0.5 3.83333H3.83333V0.5C3.83333 0.358333 3.88128 0.239611 3.97717 0.143833C4.07306 0.0479445 4.19183 0 4.3335 0C4.47528 0 4.594 0.0479445 4.68967 0.143833C4.78544 0.239611 4.83333 0.358333 4.83333 0.5V3.83333H8.16667C8.30833 3.83333 8.42706 3.88128 8.52283 3.97717C8.61872 4.07306 8.66667 4.19183 8.66667 4.3335C8.66667 4.47528 8.61872 4.594 8.52283 4.68967C8.42706 4.78544 8.30833 4.83333 8.16667 4.83333H4.83333V8.16667C4.83333 8.30833 4.78539 8.42706 4.6895 8.52283C4.59361 8.61872 4.47483 8.66667 4.33317 8.66667C4.19139 8.66667 4.07267 8.61872 3.977 8.52283C3.88122 8.42706 3.83333 8.30833 3.83333 8.16667V4.83333Z" fill="var(--fill-0, white)"/>
</svg>
