<svg preserveAspectRatio="none" width="100%" height="100%" overflow="visible" style="display: block;" viewBox="0 0 19 12" fill="none" xmlns="http://www.w3.org/2000/svg">
<path id="Vector" d="M16.5825 1.5825V4.5825H3.4125L6.2925 1.7025C6.6825 1.3125 6.6825 0.6825 6.2925 0.2925C5.9025 -0.0975 5.2725 -0.0975 4.8825 0.2925L0.2925 4.8825C-0.0975 5.2725 -0.0975 5.9025 0.2925 6.2925L4.8825 10.8825C5.2725 11.2725 5.9025 11.2725 6.2925 10.8825C6.6825 10.4925 6.6825 9.8625 6.2925 9.4725L3.4125 6.5825H17.5825C18.1325 6.5825 18.5825 6.1325 18.5825 5.5825V1.5825C18.5825 1.0325 18.1325 0.5825 17.5825 0.5825C17.0325 0.5825 16.5825 1.0325 16.5825 1.5825Z" fill="var(--fill-0, #212121)" fill-opacity="0.65"/>
</svg>
