<svg preserveAspectRatio="none" width="100%" height="100%" overflow="visible" style="display: block;" viewBox="0 0 6 3" fill="none" xmlns="http://www.w3.org/2000/svg">
<path id="Vector" d="M2.19417 2.616L0.0933334 0.515333C0.0644445 0.486333 0.0416667 0.453945 0.025 0.418167C0.00833333 0.3825 0 0.344222 0 0.303334C0 0.221667 0.0276111 0.150666 0.0828334 0.090333C0.138056 0.0301108 0.210833 0 0.301167 0H4.72683C4.81717 0 4.88994 0.0304441 4.94517 0.091333C5.00039 0.152111 5.028 0.223056 5.028 0.304167C5.028 0.3245 4.99683 0.394889 4.9345 0.515333L2.83383 2.616C2.78561 2.66433 2.73572 2.69961 2.68417 2.72183C2.63261 2.74406 2.57589 2.75517 2.514 2.75517C2.45211 2.75517 2.39539 2.74406 2.34383 2.72183C2.29228 2.69961 2.24239 2.66433 2.19417 2.616Z" fill="var(--fill-0, black)" fill-opacity="0.38"/>
</svg>
