<svg preserveAspectRatio="none" width="100%" height="100%" overflow="visible" style="display: block;" viewBox="0 0 20 20" fill="none" xmlns="http://www.w3.org/2000/svg">
<path id="Vector" d="M18.9081 6.39042L13.2615 5.90042L11.0565 0.70875C10.6598 -0.23625 9.30645 -0.23625 8.90978 0.70875L6.70478 5.91208L1.06978 6.39042C0.0431171 6.47208 -0.376883 7.75542 0.404784 8.43208L4.68645 12.1421L3.40312 17.6488C3.16978 18.6521 4.25478 19.4454 5.14145 18.9087L9.98312 15.9921L14.8248 18.9204C15.7115 19.4571 16.7965 18.6638 16.5631 17.6604L15.2798 12.1421L19.5615 8.43208C20.3431 7.75542 19.9348 6.47208 18.9081 6.39042ZM9.98312 13.8104L5.59645 16.4587L6.76312 11.4654L2.88978 8.10542L7.99978 7.66208L9.98312 2.96042L11.9781 7.67375L17.0881 8.11708L13.2148 11.4771L14.3815 16.4704L9.98312 13.8104Z" fill="var(--fill-0, #424242)"/>
</svg>
