<svg preserveAspectRatio="none" width="100%" height="100%" overflow="visible" style="display: block;" viewBox="0 0 19 5" fill="none" xmlns="http://www.w3.org/2000/svg">
<path id="Vector" d="M2.33333 0C1.05 0 0 1.05 0 2.33333C0 3.61667 1.05 4.66667 2.33333 4.66667C3.61667 4.66667 4.66667 3.61667 4.66667 2.33333C4.66667 1.05 3.61667 0 2.33333 0ZM16.3333 0C15.05 0 14 1.05 14 2.33333C14 3.61667 15.05 4.66667 16.3333 4.66667C17.6167 4.66667 18.6667 3.61667 18.6667 2.33333C18.6667 1.05 17.6167 0 16.3333 0ZM9.33333 0C8.05 0 7 1.05 7 2.33333C7 3.61667 8.05 4.66667 9.33333 4.66667C10.6167 4.66667 11.6667 3.61667 11.6667 2.33333C11.6667 1.05 10.6167 0 9.33333 0Z" fill="var(--fill-0, #424242)"/>
</svg>
