<svg width="18" height="48" viewBox="0 0 18 48" fill="none" xmlns="http://www.w3.org/2000/svg">
<path d="M7.9707 10.5C10.132 10.5 12.1539 10.9747 13.6201 12.001C14.9558 12.936 15.8632 14.3507 15.9902 16.3906H12.4209C12.2537 15.2255 11.7262 14.4069 10.9209 13.8867C10.0459 13.3215 8.9129 13.1553 7.76074 13.1553C6.95676 13.1553 6.05055 13.3235 5.32715 13.7695C4.57875 14.231 4.03723 14.989 4.03711 16.082C4.03711 16.5422 4.10758 16.9758 4.36133 17.3633C4.61207 17.7461 4.99983 18.0197 5.50098 18.2539C6.2329 18.5959 7.34655 18.9127 8.9707 19.3369L10.7705 19.8027H10.7734C11.5686 20.0023 13.0641 20.3301 14.3691 21.1787C15.6459 22.009 16.7236 23.3262 16.7236 25.5508C16.7236 26.152 16.521 27.2692 16.2793 28.1543C15.3985 25.724 13.0433 24.2264 10.9258 23.332C9.70317 22.8156 8.51406 22.4799 7.63281 22.2734C7.19161 22.1701 6.82531 22.0985 6.56836 22.0527C6.44013 22.0299 6.33849 22.0138 6.26855 22.0029C6.23659 21.998 6.21085 21.9929 6.19238 21.9902C4.6734 21.5742 3.24945 21.0702 2.2041 20.2344C1.18231 19.4174 0.5 18.267 0.5 16.4717C0.500074 14.4656 1.43522 12.9927 2.83008 12.0039C4.24041 11.0043 6.12649 10.5001 7.9707 10.5Z" stroke="#266079"/>
</svg>
