<svg width="114" height="48" viewBox="0 0 114 48" fill="none" xmlns="http://www.w3.org/2000/svg">
<path d="M7.9707 10.5C10.132 10.5 12.1539 10.9747 13.6201 12.001C14.9558 12.936 15.8632 14.3507 15.9902 16.3906H12.4209C12.2537 15.2255 11.7262 14.4069 10.9209 13.8867C10.0459 13.3215 8.9129 13.1553 7.76074 13.1553C6.95676 13.1553 6.05055 13.3235 5.32715 13.7695C4.57875 14.231 4.03723 14.989 4.03711 16.082C4.03711 16.5422 4.10758 16.9758 4.36133 17.3633C4.61207 17.7461 4.99983 18.0197 5.50098 18.2539C6.2329 18.5959 7.34655 18.9127 8.9707 19.3369L10.7705 19.8027H10.7734C11.5686 20.0023 13.0641 20.3301 14.3691 21.1787C15.6459 22.009 16.7236 23.3262 16.7236 25.5508C16.7236 26.152 16.521 27.2692 16.2793 28.1543C15.3985 25.724 13.0433 24.2264 10.9258 23.332C9.70317 22.8156 8.51406 22.4799 7.63281 22.2734C7.19161 22.1701 6.82531 22.0985 6.56836 22.0527C6.44013 22.0299 6.33849 22.0138 6.26855 22.0029C6.23659 21.998 6.21085 21.9929 6.19238 21.9902C4.6734 21.5742 3.24945 21.0702 2.2041 20.2344C1.18231 19.4174 0.5 18.267 0.5 16.4717C0.500074 14.4656 1.43522 12.9927 2.83008 12.0039C4.24041 11.0043 6.12649 10.5001 7.9707 10.5Z" stroke="#266079"/>
<path d="M20.1986 35.0136C21.1732 35.0136 22.0331 34.4272 22.5351 33.1995L23.0055 32.1107L18.2807 21.4205C18.1137 21.0022 17.919 20.9191 17.5281 20.9191H17.1132V17.9043H19.4492C20.4507 17.9043 20.9512 18.2665 21.312 19.2434L24.0935 26.3612C24.3701 27.086 24.5936 28.2593 24.5936 28.2593H24.6505C24.6505 28.2593 24.872 27.086 25.1209 26.3612L27.5406 19.2434C27.8751 18.2665 28.4589 17.9043 29.4312 17.9043H31.8227V20.9191H31.4069C30.9882 20.9191 30.7667 21.0022 30.5983 21.4205L25.5104 34.2879C24.5093 36.8564 22.5073 38 20.3943 38C18.1692 38 16.8055 36.5491 16.8055 36.5491L18.1697 34.0367C18.1697 34.0367 19.0306 35.0136 20.1986 35.0136Z" fill="#266079"/>
<path d="M34.7477 21.5329C34.7477 21.1146 34.5247 20.9191 34.1333 20.9191H33.0232V17.9043H36.277C37.5282 17.9043 38.1393 18.4898 38.1393 19.4941V19.9129C38.1368 20.1187 38.1183 20.3239 38.0838 20.5267H38.1402C38.7518 19.326 40.2815 17.5686 43.1449 17.5686C46.2881 17.5686 48.0954 19.2155 48.0954 22.9834V28.5379C48.0954 28.9288 48.3179 29.1517 48.7069 29.1517H49.8171V32.1377H46.4542C45.1192 32.1377 44.5627 31.5796 44.5627 30.2405V23.7091C44.5627 21.9786 44.1181 20.8063 42.3381 20.8063C40.4476 20.8063 39.0293 22.0065 38.5279 23.7091C38.3326 24.2951 38.2494 24.9367 38.2494 25.6077V32.1381H34.7467L34.7477 21.5329Z" fill="#266079"/>
<path d="M57.5811 17.5691C59.4157 17.5691 62.725 18.3246 62.725 20.7798V22.4536H59.61V21.6717C59.61 20.8903 58.4429 20.5551 57.5811 20.5551C55.135 20.5551 53.3827 22.4253 53.3827 24.9934C53.3827 27.8962 55.5245 29.375 57.8045 29.375C60.2238 29.375 62.0048 27.4496 62.0048 27.4496L63.479 29.9048C63.479 29.9048 61.366 32.4729 57.4993 32.4729C52.8267 32.4729 49.8237 29.1512 49.8237 25.0203C49.8213 21.0022 52.7143 17.5691 57.5811 17.5691Z" fill="#266079"/>
<path d="M65.6452 21.5329C65.6452 21.1146 65.4227 20.9191 65.0337 20.9191H63.9231V17.9043H67.1482C68.3999 17.9043 69.0383 18.4336 69.0383 19.6348V20.471C69.0403 20.7697 69.0216 21.0682 68.9823 21.3643H69.0383C69.678 19.3265 71.3757 17.7079 73.5443 17.7079C73.7579 17.7113 73.9711 17.7299 74.1821 17.7636V21.2534C73.897 21.2146 73.6095 21.1959 73.3218 21.1972C71.8193 21.1972 70.0971 22.0627 69.456 24.1841C69.25 24.9389 69.1473 25.7184 69.1507 26.501V32.1381H65.6471L65.6452 21.5329Z" fill="#266079"/>
<path d="M81.8008 17.5691C86.1393 17.5691 89.5865 20.667 89.5865 25.0212C89.5865 29.4024 86.1393 32.4738 81.8008 32.4738C77.49 32.4738 74.0391 29.4024 74.0391 25.0212C74.0415 20.667 77.49 17.5691 81.8008 17.5691ZM81.8008 29.4591C84.1091 29.4591 86.0269 27.6724 86.0269 25.0208C86.0269 22.3974 84.1091 20.5824 81.8008 20.5824C79.5198 20.5824 77.602 22.3974 77.602 25.0208C77.602 27.671 79.5198 29.4591 81.8008 29.4591Z" fill="#266079"/>
<path d="M91.1167 20.7227H89.363V17.9043H91.1167V17.4851C91.1167 12.8239 94.9237 12.2101 96.8994 12.2101C97.2997 12.2063 97.6996 12.2341 98.0956 12.2932V15.3079C97.8563 15.2698 97.6144 15.2512 97.3721 15.2522C96.3706 15.2522 94.6475 15.5034 94.6475 17.5691V17.9043H97.6788V20.7227H94.6475V32.1381H91.1167V20.7227Z" fill="#266079"/>
<path d="M102.376 35.0136C103.349 35.0136 104.213 34.4272 104.713 33.1995L105.186 32.1093L100.458 21.4205C100.291 21.0022 100.096 20.9191 99.7058 20.9191H99.289V17.9043H101.624C102.627 17.9043 103.126 18.2665 103.489 19.2434L106.268 26.3612C106.547 27.086 106.768 28.2593 106.768 28.2593H106.825C106.825 28.2593 107.048 27.086 107.298 26.3612L109.716 19.2434C110.051 18.2665 110.634 17.9043 111.609 17.9043H114V20.9191H113.582C113.165 20.9191 112.943 21.0022 112.776 21.4205L107.687 34.2879C106.686 36.8564 104.684 38 102.571 38C100.346 38 98.9832 36.5491 98.9832 36.5491L100.347 34.0367C100.347 34.0367 101.21 35.0136 102.376 35.0136Z" fill="#266079"/>
</svg>
